<?xml version="1.0" standalone="no"?>
<!DOCTYPE svg PUBLIC "-//W3C//DTD SVG 20010904//EN"
 "http://www.w3.org/TR/2001/REC-SVG-20010904/DTD/svg10.dtd">
<svg version="1.0" xmlns="http://www.w3.org/2000/svg"
 width="2000.000000pt" height="2000.000000pt" viewBox="0 0 2000.000000 2000.000000"
 preserveAspectRatio="xMidYMid meet">

<g transform="translate(0.000000,2000.000000) scale(0.100000,-0.100000)"
fill="#000000" stroke="none">
<path d="M9655 18113 c-105 -4 -355 -32 -490 -54 -803 -131 -1553 -453 -2185
-938 -202 -154 -323 -262 -520 -460 -282 -284 -503 -563 -706 -893 -91 -148
-267 -487 -321 -618 l-31 -75 -94 -38 c-303 -124 -382 -159 -568 -249 -310
-150 -449 -238 -506 -322 -49 -74 -85 -217 -111 -450 -22 -199 -21 -764 1
-1021 64 -735 204 -1255 414 -1549 32 -43 74 -93 95 -111 97 -84 316 -159 711
-245 98 -21 179 -40 180 -42 2 -2 34 -64 73 -138 130 -250 319 -541 497 -765
515 -648 1225 -1186 1965 -1490 l93 -39 -85 -22 c-199 -53 -344 -131 -470
-252 -165 -159 -246 -316 -322 -622 -34 -137 -75 -350 -75 -392 0 -13 -17 -48
-37 -78 -76 -113 -206 -341 -297 -520 -268 -529 -422 -986 -510 -1511 -13 -74
-36 -326 -36 -391 l0 -66 -70 -21 c-127 -39 -123 -39 -158 16 -55 86 -150 162
-287 231 -150 75 -275 103 -458 103 -554 -1 -937 -441 -937 -1078 0 -727 447
-1570 945 -1785 280 -121 664 -128 1197 -24 152 30 330 75 1188 303 113 30
351 92 530 138 179 47 341 89 360 95 19 6 93 26 165 44 l129 34 51 -18 c27
-10 84 -28 125 -39 516 -140 1139 -144 1669 -10 67 16 136 36 153 44 28 11 37
11 62 -2 16 -9 73 -19 125 -24 68 -5 185 -31 401 -88 168 -45 478 -126 690
-182 212 -55 435 -114 495 -130 579 -153 793 -198 1064 -224 341 -33 611 -3
813 89 439 201 844 900 918 1584 16 140 8 368 -15 477 -49 231 -140 403 -290
550 -273 268 -710 326 -1080 143 -113 -55 -225 -145 -275 -218 -24 -35 -48
-60 -58 -59 -9 0 -48 10 -87 22 l-70 23 -7 134 c-37 736 -348 1602 -859 2393
-21 33 -41 76 -45 96 -68 406 -152 668 -263 821 -49 68 -176 191 -247 240
-104 72 -211 119 -350 154 l-86 22 103 43 c262 110 581 283 839 454 670 446
1283 1136 1638 1843 47 93 53 100 107 109 167 29 489 111 623 159 92 33 203
99 243 145 233 262 387 758 464 1491 40 381 40 995 0 1270 -19 130 -58 272
-90 326 -68 116 -417 308 -977 536 l-196 80 -38 86 c-289 657 -703 1230 -1229
1701 -395 355 -797 617 -1275 833 -720 325 -1450 458 -2315 421z m705 -174
c210 -17 670 -91 670 -108 0 -3 -26 -19 -58 -36 -54 -28 -281 -177 -384 -252
l-47 -34 -113 13 c-154 17 -795 17 -953 0 -578 -63 -1006 -165 -1485 -355
-514 -203 -1033 -514 -1444 -865 -216 -184 -552 -531 -704 -727 l-24 -30 23
40 c97 171 258 406 378 554 42 51 98 121 126 155 62 77 395 413 481 486 36 30
73 62 82 70 9 9 69 56 132 105 864 671 1926 1024 3000 999 107 -3 251 -9 320
-15z m1107 -228 c517 -172 1007 -436 1438 -775 50 -39 107 -86 128 -106 l37
-35 -15 -92 c-74 -454 -488 -878 -1140 -1166 -316 -140 -726 -265 -1155 -352
-208 -42 -409 -77 -422 -73 -6 2 74 81 178 175 219 198 344 324 369 372 24 47
16 121 -21 196 -16 33 -112 184 -214 335 -311 464 -341 511 -396 616 -58 108
-64 142 -35 189 95 157 567 522 876 677 96 49 186 86 212 87 7 1 79 -21 160
-48z m-1120 -344 c4 -5 -1 -15 -12 -23 -46 -33 -218 -211 -246 -256 -32 -50
-62 -132 -52 -142 4 -3 -20 -6 -53 -6 -120 0 -494 -21 -634 -36 -1241 -127
-2391 -663 -3230 -1503 -297 -298 -525 -590 -716 -920 -26 -46 -50 -79 -52
-73 -9 27 167 381 294 594 731 1217 1987 2061 3434 2307 138 23 337 48 480 60
130 11 775 9 787 -2z m3014 -844 c162 -166 342 -376 426 -496 214 -308 299
-447 418 -687 326 -654 477 -1251 510 -2011 l6 -146 -57 -52 c-191 -175 -559
-362 -972 -495 -105 -34 -335 -96 -355 -96 -5 0 15 26 44 58 117 128 229 338
274 516 92 361 29 730 -175 1037 l-47 71 24 24 c34 34 55 91 55 145 0 66 -98
360 -135 405 -41 49 -95 74 -163 74 -46 0 -84 -11 -218 -66 -88 -37 -345 -143
-571 -236 -225 -93 -453 -186 -505 -208 -52 -21 -176 -72 -275 -113 -99 -41
-272 -112 -384 -158 -217 -89 -249 -110 -282 -184 -21 -45 -24 -93 -9 -144 l9
-34 -42 7 c-94 14 -326 17 -572 8 -191 -7 -264 -7 -274 2 -25 20 -160 193
-228 293 -145 214 -168 307 -105 434 48 95 145 220 285 365 l122 126 188 29
c1367 208 2288 650 2664 1276 59 99 124 255 150 358 9 36 19 65 23 65 4 0 81
-75 171 -167z m-8080 -1765 c-84 -258 -167 -628 -205 -918 -52 -398 -52 -869
0 -1285 51 -407 177 -881 329 -1234 l35 -84 -42 7 c-156 25 -509 126 -600 172
-127 64 -269 325 -363 671 -109 398 -168 900 -169 1443 0 316 12 484 50 669
27 135 40 167 82 206 40 39 229 149 372 217 162 78 533 239 538 233 2 -2 -10
-46 -27 -97z m9559 2 c211 -90 492 -230 595 -298 120 -79 128 -95 174 -332 36
-184 48 -775 23 -1070 -30 -343 -76 -668 -96 -683 -20 -15 -186 2 -227 24 -42
21 -84 76 -93 124 -4 17 2 91 13 165 35 240 61 593 61 836 0 179 -32 265 -127
334 -34 25 -307 140 -332 140 -16 0 -19 11 -46 151 -31 162 -113 480 -155 603
-16 50 -30 93 -30 97 0 9 55 -12 240 -91z m-7917 -149 c45 -21 159 -76 252
-121 94 -45 211 -102 260 -125 50 -23 153 -73 230 -110 203 -98 396 -191 505
-242 392 -187 460 -220 482 -240 10 -9 27 -35 38 -58 18 -37 19 -48 10 -93 -7
-32 -22 -62 -41 -82 -61 -63 -114 -65 -287 -9 -70 22 -162 52 -205 65 -44 14
-81 23 -84 21 -2 -3 7 -27 20 -54 57 -112 80 -202 85 -326 5 -134 -5 -202 -49
-317 -41 -107 -78 -160 -181 -262 -73 -72 -104 -95 -181 -133 -224 -109 -470
-111 -672 -7 -125 64 -183 111 -269 217 -121 149 -181 363 -156 555 11 86 35
177 51 195 5 5 9 16 9 25 0 24 96 165 150 220 62 63 158 133 214 156 25 11 46
22 46 25 0 4 -39 19 -87 34 -242 75 -431 138 -453 153 -58 36 -90 95 -90 164
0 53 75 283 104 319 42 53 112 81 179 73 21 -2 75 -22 120 -43z m6435 -493
c87 -119 157 -275 194 -431 28 -123 30 -353 4 -477 -99 -463 -449 -813 -911
-911 -114 -24 -328 -26 -445 -3 -353 67 -653 292 -819 614 -84 163 -131 354
-131 532 l0 77 113 36 c62 19 115 35 118 35 2 0 4 -66 4 -147 0 -113 5 -166
19 -223 43 -170 126 -317 248 -441 279 -282 706 -356 1063 -185 246 118 420
323 501 591 25 82 27 105 28 250 0 134 -4 173 -22 240 -31 114 -112 270 -182
353 l-59 71 107 35 c59 19 112 34 119 35 7 1 30 -23 51 -51z m-384 -87 c12
-14 16 -27 11 -43 -11 -33 -54 -118 -78 -151 l-20 -29 -51 50 c-28 28 -73 64
-100 81 -32 20 -44 32 -35 36 51 19 227 73 240 74 9 1 24 -8 33 -18z m172
-240 c42 -87 72 -198 81 -296 l6 -71 -79 -26 c-44 -15 -94 -30 -111 -33 l-33
-7 0 75 c0 89 -29 210 -68 282 l-28 52 24 34 c13 19 39 65 58 103 l36 69 39
-54 c21 -30 55 -87 75 -128z m1818 32 c134 -53 179 -89 197 -157 8 -28 10
-112 5 -266 -7 -259 -18 -399 -48 -630 -34 -256 -27 -315 47 -405 61 -75 137
-102 322 -117 l31 -3 -28 -110 c-76 -292 -177 -518 -289 -647 -55 -62 -133
-101 -306 -151 -151 -44 -404 -102 -411 -94 -4 3 15 58 40 121 183 456 290
916 337 1436 18 197 16 639 -5 855 -9 99 -19 188 -22 198 -3 9 -2 17 3 17 4 0
62 -21 127 -47z m-3089 -130 c-4 -10 -14 -38 -22 -63 -20 -59 -27 -65 -98 -79
-33 -7 -80 -22 -104 -32 -24 -11 -45 -18 -47 -17 -4 5 17 122 22 128 7 6 224
78 243 79 9 1 11 -5 6 -16z m-998 -73 c91 -12 180 -39 222 -69 27 -20 28 -22
34 -148 7 -152 27 -263 69 -381 147 -417 481 -720 917 -832 23 -6 41 -13 39
-15 -17 -17 -623 -136 -915 -179 -338 -50 -995 -117 -1009 -103 -3 3 11 37 30
76 l36 71 173 0 c192 0 250 10 356 61 122 60 230 195 267 334 10 34 14 118 14
266 0 248 -10 300 -79 405 -49 76 -91 118 -165 166 -93 60 -165 78 -316 78
-107 0 -131 3 -148 18 -23 20 -202 238 -202 246 0 3 62 7 138 9 332 7 463 6
539 -3z m968 -355 c9 -27 27 -71 40 -96 l23 -46 -56 -102 c-30 -55 -58 -101
-61 -101 -9 0 -85 117 -109 165 -46 95 -81 237 -82 331 0 29 5 34 56 55 32 12
80 28 108 34 l51 12 6 -101 c4 -56 14 -123 24 -151z m1369 33 c-29 -153 -94
-289 -187 -393 l-45 -50 -74 38 c-40 20 -84 46 -98 56 l-24 19 61 65 c61 66
127 180 138 241 6 30 10 32 84 50 43 10 91 24 107 32 51 22 53 20 38 -58z
m-1087 -380 c37 -21 89 -43 115 -50 42 -10 48 -15 48 -37 0 -14 13 -64 29
-111 16 -47 27 -87 25 -89 -7 -8 -149 22 -204 42 -108 41 -227 115 -288 179
l-22 24 53 101 52 102 62 -62 c34 -34 93 -78 130 -99z m2573 -97 c-76 -918
-395 -1760 -941 -2483 -260 -345 -589 -675 -922 -926 -141 -107 -323 -232
-335 -232 -4 1 -24 36 -44 78 -71 147 -203 333 -385 543 -46 53 -83 99 -83
102 0 3 53 49 118 103 466 392 788 871 956 1428 71 231 114 542 96 693 -9 82
-40 172 -66 194 -8 6 -14 14 -14 18 0 17 77 42 200 67 338 66 701 189 1008
342 139 69 319 178 382 231 l35 30 3 -26 c2 -15 -1 -88 -8 -162z m-1893 75
c37 -24 83 -51 102 -61 l33 -17 -53 -39 c-130 -93 -312 -155 -438 -147 -53 3
-54 4 -69 43 -8 22 -22 70 -32 107 l-18 68 52 -6 c76 -8 208 19 285 59 36 19
67 35 68 35 1 1 33 -18 70 -42z m178 -646 c72 -27 80 -254 19 -560 -103 -520
-368 -1006 -764 -1401 -340 -339 -730 -585 -1205 -759 -71 -26 -145 -51 -163
-55 l-32 -7 52 109 c29 60 58 119 63 132 7 17 36 33 110 62 411 161 832 452
1122 778 332 373 546 812 619 1270 29 182 16 191 -181 127 -77 -25 -189 -59
-250 -75 -60 -17 -123 -35 -140 -40 -50 -16 -270 -68 -440 -105 -448 -96 -894
-159 -1320 -185 -280 -17 -417 -22 -413 -13 57 144 103 233 122 236 11 3 95
10 186 16 705 48 1524 185 2132 358 57 17 146 40 198 51 52 12 122 33 155 46
67 26 92 29 130 15z m-6062 -169 l82 -28 2 -289 3 -289 -46 100 c-25 55 -61
141 -79 190 -33 87 -105 326 -105 347 0 12 38 4 143 -31z m618 -160 c90 -22
215 -50 277 -62 l112 -22 0 -729 c0 -691 -1 -728 -17 -719 -67 35 -398 354
-491 471 l-52 65 0 517 c0 285 2 518 4 518 2 0 77 -18 167 -39z m5149 -85 c0
-17 -37 -178 -57 -251 -55 -195 -166 -444 -268 -601 l-45 -69 0 407 0 407 58
16 c31 9 111 34 177 55 128 40 135 42 135 36z m-4165 -106 c105 -16 220 -32
258 -36 l67 -7 0 -903 c0 -497 -4 -904 -8 -904 -34 0 -378 153 -489 218 l-63
36 0 818 0 818 23 -5 c12 -3 108 -18 212 -35z m3628 -1039 c-70 -84 -278 -288
-363 -357 -41 -34 -118 -91 -170 -128 l-95 -67 -3 702 c-1 386 -1 703 0 705 2
1 93 21 203 43 110 23 261 56 335 74 l135 33 3 -474 2 -475 -47 -56z m-2623
938 c136 -7 238 -17 242 -23 3 -5 6 -437 5 -959 l-1 -950 -100 6 c-104 7 -243
26 -379 52 -43 8 -81 15 -83 15 -2 0 -4 424 -4 941 l0 942 43 -6 c23 -3 148
-12 277 -18z m1870 -838 l0 -727 -87 -46 c-90 -47 -270 -130 -310 -142 -19 -6
-23 -4 -23 14 0 53 -82 179 -196 299 l-64 68 0 591 0 590 63 7 c149 16 392 47
493 64 60 9 112 16 117 14 4 -2 7 -332 7 -732z m-805 627 c3 -7 4 -242 3 -522
l-3 -510 -157 160 c-240 245 -346 373 -420 510 -52 98 -60 170 -29 272 l21 70
122 6 c161 8 430 22 446 24 7 1 15 -4 17 -10z m-4900 -258 c401 -538 908
-1020 1455 -1385 530 -352 1087 -602 1661 -744 421 -104 775 -145 1207 -139
133 1 242 1 242 -1 0 -6 -162 -221 -259 -345 l-86 -109 -160 7 c-1601 69
-3055 937 -3886 2318 -79 131 -192 347 -244 463 -31 70 -31 71 70 -65z m4776
-887 l229 -231 0 -136 c0 -75 -3 -136 -8 -136 -4 0 -39 -7 -77 -15 -101 -21
-358 -55 -421 -55 l-54 0 -1 208 c-1 114 -3 322 -5 462 l-3 255 56 -60 c31
-33 159 -164 284 -292z m1455 -485 c131 -139 310 -380 398 -536 85 -150 89
-135 -66 -219 -574 -311 -1155 -495 -1780 -562 -268 -29 -350 -33 -341 -18 4
7 89 120 187 251 98 131 235 322 304 424 l124 186 137 41 c323 98 637 243 896
414 50 33 92 60 95 60 3 1 24 -18 46 -41z m-3336 -1318 c409 -122 902 -190
1368 -190 l214 0 -97 -102 c-114 -119 -213 -244 -245 -308 -28 -55 -30 -125
-5 -201 10 -30 57 -139 105 -244 48 -104 90 -200 94 -212 9 -30 -10 -65 -113
-205 l-86 -117 -556 -1 c-319 0 -578 -4 -608 -10 -158 -30 -286 -159 -311
-317 -6 -32 -10 -122 -10 -200 l0 -143 -72 0 c-195 0 -512 -36 -660 -75 -29
-7 -55 -12 -57 -9 -7 6 37 147 109 349 125 352 300 766 555 1310 64 138 119
257 122 265 10 30 -113 -160 -227 -350 -148 -247 -233 -402 -370 -682 -141
-289 -225 -492 -314 -759 l-71 -217 -45 -23 c-67 -36 -182 -154 -215 -222 -36
-76 -44 -170 -20 -252 22 -78 44 -120 105 -199 l50 -65 0 -124 0 -124 -92 -28
c-51 -15 -214 -65 -361 -111 -148 -46 -275 -84 -283 -84 -17 0 -17 2 1 192 66
690 370 1491 832 2193 354 537 717 923 1178 1253 35 25 39 25 85 12z m2906
-61 c107 -77 272 -215 399 -333 l80 -74 -25 -27 c-14 -15 -64 -60 -112 -101
l-87 -75 -44 68 c-24 37 -63 99 -86 136 -24 37 -45 66 -47 64 -2 -2 13 -39 34
-83 64 -131 95 -204 89 -210 -9 -9 -244 -61 -397 -88 -357 -62 -629 -89 -1122
-111 l-137 -7 -15 30 c-8 16 -26 63 -40 103 -23 68 -24 75 -9 103 28 56 126
169 287 333 l159 162 56 6 c143 17 349 49 481 77 142 29 371 86 379 94 2 2 17
4 31 4 18 0 62 -25 126 -71z m-3358 -26 c-185 -154 -528 -514 -678 -713 -18
-25 -37 -49 -42 -55 -24 -27 57 253 101 350 83 182 252 347 434 423 70 28 220
71 255 72 17 0 1 -18 -70 -77z m3662 56 c259 -58 485 -239 590 -473 29 -63 82
-225 95 -286 7 -33 3 -30 -53 40 -49 62 -62 86 -71 133 -22 122 -88 193 -196
212 -33 6 -61 28 -165 129 -69 67 -162 153 -207 190 -46 37 -83 70 -83 73 0 2
8 2 18 0 9 -3 42 -11 72 -18z m368 -504 c68 -28 98 -137 49 -183 -13 -12 -27
-19 -31 -15 -4 4 -4 -1 0 -12 4 -11 4 -17 -1 -13 -4 4 -13 1 -19 -6 -20 -25
-90 -56 -126 -56 -44 1 -100 21 -145 51 -33 23 -34 25 -17 42 10 9 28 19 41
22 13 2 26 7 30 11 3 4 -3 4 -14 0 -11 -3 18 29 65 73 47 43 90 83 95 89 14
15 29 14 73 -3z m-377 -342 c196 -432 331 -752 415 -980 34 -91 104 -294 104
-299 0 -6 -164 -65 -270 -98 -232 -72 -620 -160 -827 -188 -71 -9 -93 -16 -93
-28 -1 -75 -24 -255 -45 -335 -28 -113 -113 -291 -180 -380 -190 -252 -474
-423 -769 -464 -83 -12 -266 -13 -304 -2 l-23 6 23 35 c13 19 66 94 117 167
l92 132 47 7 c308 45 572 283 658 594 29 102 26 321 -5 420 -102 330 -352 538
-694 581 -51 7 -93 13 -95 14 -2 1 34 51 79 111 44 60 100 140 122 179 58 97
58 152 -1 285 -23 52 -42 98 -42 101 0 3 93 9 208 12 426 13 926 76 1287 161
77 19 146 34 153 35 7 0 27 -29 43 -66z m595 -75 c149 -196 320 -459 440 -676
l62 -114 -66 -63 c-81 -76 -128 -152 -188 -307 -54 -139 -101 -229 -108 -208
-2 8 -14 47 -27 85 -76 239 -202 541 -356 854 l-116 234 95 87 c52 49 113 113
137 144 24 31 46 56 50 56 4 0 39 -42 77 -92z m-3286 -1063 c0 -291 9 -374 50
-470 34 -80 98 -162 173 -223 100 -82 144 -134 181 -211 l31 -66 3 -338 3
-338 -433 3 c-402 3 -436 4 -471 22 -49 24 -89 64 -113 113 -18 36 -19 72 -19
828 l0 790 28 48 c30 51 87 95 139 107 18 4 122 8 231 9 l197 1 0 -275z m590
270 c0 -3 -33 -47 -73 -98 -236 -298 -298 -405 -277 -478 13 -44 65 -133 246
-424 199 -320 276 -457 278 -495 1 -22 -23 -63 -99 -171 l-100 -142 -5 289
c-5 265 -7 294 -27 347 -44 118 -78 160 -270 337 -34 31 -72 78 -87 107 -49
97 -56 154 -56 449 0 149 3 274 7 277 7 8 463 10 463 2z m407 -94 c428 -88
665 -565 478 -958 -67 -142 -172 -251 -306 -319 -63 -31 -194 -74 -229 -74
-17 0 -73 103 -63 114 4 3 20 6 37 6 47 0 133 26 201 59 217 108 343 369 296
613 -33 168 -156 324 -313 397 -161 75 -311 77 -482 5 -16 -6 -14 0 9 32 77
103 107 133 139 137 74 9 147 5 233 -12z m2920 -162 c188 -408 323 -828 386
-1204 26 -155 54 -441 44 -451 -3 -3 -154 41 -336 98 -228 70 -333 108 -336
118 -3 9 -25 36 -50 61 l-45 44 0 116 c0 63 -5 165 -11 225 -11 114 -59 378
-84 459 l-14 47 39 57 c48 72 80 134 131 263 22 57 54 128 70 159 32 60 116
152 133 146 6 -2 38 -64 73 -138z m-2957 -80 c27 -6 48 -15 45 -20 -4 -5 1 -6
9 -3 47 18 250 -175 232 -222 -3 -8 -2 -12 4 -9 13 8 25 -24 40 -111 l13 -70
-44 -60 c-66 -92 -165 -161 -275 -190 -53 -14 -140 -15 -272 -2 -24 3 -127
162 -116 180 4 7 3 8 -4 4 -11 -6 -38 31 -34 47 1 4 -3 7 -9 7 -6 0 -8 7 -5
16 3 8 2 13 -3 9 -5 -3 -30 29 -55 71 l-46 75 25 51 c49 98 179 203 282 227
54 13 154 13 213 0z m2304 -246 c50 -154 127 -502 156 -704 l13 -86 -48 -74
c-259 -401 -827 -777 -1580 -1044 l-120 -43 -3 -655 -2 -655 -68 -11 c-121
-19 -223 -31 -267 -31 l-43 0 33 84 c83 212 95 363 34 440 -32 40 -92 67 -370
161 -140 47 -258 90 -263 95 -9 9 1 26 162 250 134 186 182 277 182 344 0 107
-57 153 -311 254 -164 65 -219 92 -219 106 0 6 15 38 34 71 30 54 36 60 62 57
16 -2 115 -4 219 -4 184 -1 194 0 310 31 411 110 749 417 884 804 36 103 71
266 71 330 l0 45 43 7 c319 51 839 183 998 254 67 30 75 27 93 -26z m-4024
-342 l0 -258 -112 -7 c-227 -14 -524 -52 -777 -98 l-115 -21 -29 34 c-46 54
-87 148 -87 199 1 129 134 251 349 320 159 51 411 84 669 88 l102 2 0 -259z
m0 -598 c0 -211 14 -288 63 -365 66 -104 159 -162 285 -179 45 -6 228 -9 445
-7 364 3 368 3 362 -17 -18 -60 -17 -94 5 -133 35 -61 96 -99 291 -177 210
-84 233 -98 223 -127 -12 -38 -84 -149 -199 -308 -164 -226 -187 -279 -147
-345 28 -46 95 -76 370 -169 139 -47 266 -93 283 -102 31 -15 31 -17 25 -69
-8 -68 -38 -165 -88 -287 l-40 -98 -257 0 c-141 0 -317 5 -391 10 -386 29
-747 101 -1022 204 -51 19 -94 34 -95 32 -5 -5 80 -62 151 -101 58 -32 66 -40
50 -47 -10 -4 -174 -48 -364 -98 -358 -93 -492 -129 -965 -254 -154 -40 -282
-72 -284 -70 -2 2 10 21 27 42 79 99 159 306 193 498 28 155 30 436 5 599 -75
488 -291 857 -600 1026 l-49 27 34 10 c19 5 158 48 311 96 152 47 280 86 285
86 5 0 15 -33 21 -72 15 -89 81 -288 117 -355 16 -30 24 -38 21 -23 -36 179
-40 233 -41 522 0 163 3 299 7 303 26 26 710 120 911 124 l57 1 0 -177z m4180
-272 c-154 -618 -604 -1263 -1223 -1754 -166 -132 -357 -266 -379 -267 -17 0
-18 35 -18 595 l0 595 23 10 c12 5 105 42 206 81 393 154 779 368 1041 576
102 80 292 269 340 337 l35 49 3 -48 c2 -29 -9 -96 -28 -174z m150 -8 c0 -74
-37 -286 -49 -279 -3 2 -7 -12 -8 -33 -2 -44 -79 -240 -130 -330 -4 -6 -63 21
-63 29 0 4 25 59 55 123 30 63 55 121 55 127 0 6 3 9 8 7 4 -3 8 5 9 16 0 12
20 76 42 142 23 65 47 148 54 182 14 75 27 82 27 16z m-7138 -7 c205 -44 388
-166 501 -334 171 -254 327 -652 367 -931 7 -54 8 -41 5 74 -7 234 -78 523
-199 816 -6 13 12 22 95 48 l103 33 65 -16 c245 -59 445 -266 574 -591 194
-489 151 -1128 -99 -1442 -52 -66 -106 -117 -146 -138 -74 -41 -605 -135 -757
-135 l-39 0 52 53 c240 246 253 831 32 1473 -113 330 -271 613 -415 745 -229
211 -559 272 -811 150 -58 -28 -60 -27 -20 14 75 77 221 153 345 180 80 18
264 18 347 1z m9260 -18 c97 -32 191 -84 257 -144 28 -26 50 -48 48 -50 -2 -2
-26 7 -54 20 -119 58 -308 75 -450 41 -92 -23 -234 -93 -310 -155 -345 -278
-660 -1185 -612 -1762 18 -214 81 -386 182 -492 l53 -56 -43 0 c-115 0 -544
71 -698 116 -129 37 -269 217 -344 440 -49 146 -71 299 -71 492 1 313 54 552
178 800 123 245 306 408 512 458 64 15 66 15 163 -15 55 -16 101 -32 103 -34
3 -2 -5 -26 -16 -53 -63 -147 -132 -385 -165 -569 -9 -49 -18 -151 -20 -225
-4 -119 -3 -127 6 -65 42 307 222 750 394 975 111 144 253 237 440 286 79 21
107 24 230 20 115 -3 153 -8 217 -28z m-1778 -124 c116 -36 226 -70 245 -76
l33 -10 -56 -32 c-142 -79 -269 -204 -359 -354 -311 -510 -338 -1296 -61
-1725 25 -38 43 -72 40 -75 -3 -2 -274 66 -603 153 -329 86 -653 171 -720 188
-68 18 -123 34 -123 37 1 3 42 35 93 72 215 157 461 393 674 648 312 374 526
780 595 1131 12 60 23 109 26 109 2 0 99 -30 216 -66z m-7719 -129 c80 -21
153 -55 226 -106 41 -30 56 -45 47 -50 -7 -4 -63 -21 -123 -37 -61 -17 -243
-67 -405 -112 -268 -75 -431 -119 -437 -120 -11 -1 4 42 41 117 77 152 184
249 335 300 81 28 226 31 316 8z m9610 0 c173 -45 313 -178 393 -374 l22 -53
-28 6 c-36 9 -808 222 -895 247 l-68 20 43 35 c54 44 167 99 238 118 73 20
221 20 295 1z m-9156 -370 c44 -72 134 -253 145 -292 6 -19 1 -23 -46 -37
-120 -34 -1195 -325 -1213 -328 -18 -3 -22 7 -38 97 -9 55 -18 160 -20 233
l-2 134 195 54 c107 30 267 74 355 99 88 24 248 69 355 98 l195 54 16 -21 c9
-12 35 -52 58 -91z m8769 34 c141 -39 322 -89 402 -111 80 -22 206 -57 280
-78 l135 -37 -3 -139 c-1 -79 -10 -180 -20 -234 -15 -84 -20 -95 -37 -92 -41
7 -1255 339 -1262 345 -11 12 97 232 173 350 24 37 51 67 60 67 8 0 131 -32
272 -71z m-8532 -569 c43 -134 90 -317 82 -326 -7 -6 -55 -21 -503 -150 -143
-42 -367 -107 -497 -145 -130 -38 -241 -69 -246 -69 -13 0 -86 169 -133 311
-32 94 -38 123 -28 130 7 4 49 17 93 28 45 12 324 88 621 170 297 82 549 149
560 148 15 -2 26 -22 51 -97z m8632 -74 c348 -95 635 -176 638 -179 17 -17
-147 -437 -170 -437 -6 0 -54 13 -106 29 -52 16 -246 73 -430 126 -184 52
-387 111 -450 130 -63 18 -148 43 -187 55 -40 11 -73 26 -73 33 0 35 98 375
117 410 2 4 10 7 16 7 7 0 297 -78 645 -174z m-8508 -477 c5 -46 10 -146 10
-221 l0 -136 -47 -15 c-27 -8 -154 -47 -283 -86 -500 -153 -592 -181 -604
-181 -13 0 -94 82 -152 155 -71 89 -160 223 -152 230 3 3 437 130 548 161 159
44 646 187 649 190 12 12 22 -20 31 -97z m8055 -2 c234 -68 777 -226 825 -239
19 -6 36 -11 38 -13 5 -5 -76 -132 -127 -200 -59 -78 -161 -185 -177 -185 -7
0 -77 20 -156 44 -78 24 -228 70 -333 101 -244 73 -404 124 -427 136 -16 9
-18 25 -18 142 0 118 14 289 25 307 3 4 39 -3 82 -15 43 -13 164 -48 268 -78z
m-8085 -544 c-43 -131 -125 -235 -219 -277 -121 -54 -224 -58 -366 -12 -90 29
-199 91 -175 100 8 4 44 15 80 25 62 18 406 123 595 181 50 15 92 26 93 25 2
-2 -2 -21 -8 -42z m8223 -101 c159 -48 289 -92 289 -97 3 -31 -255 -125 -342
-125 -113 0 -242 52 -310 126 -40 43 -100 157 -114 215 l-6 27 98 -29 c53 -16
227 -68 385 -117z"/>
<path d="M12788 16559 c-21 -12 -24 -59 -6 -77 19 -19 66 -15 78 7 29 54 -20
101 -72 70z"/>
<path d="M12374 16035 c-15 -23 -15 -27 0 -51 23 -33 64 -30 85 8 14 24 14 28
-3 47 -26 29 -62 27 -82 -4z"/>
<path d="M11756 15679 c-21 -31 3 -79 41 -79 17 0 53 36 53 54 0 43 -68 61
-94 25z"/>
<path d="M10954 15435 c-15 -23 -15 -27 0 -50 20 -30 56 -33 79 -7 21 23 22
46 1 66 -24 24 -61 20 -80 -9z"/>
<path d="M13186 16344 c-19 -18 -21 -55 -4 -72 7 -7 24 -12 38 -12 49 0 68 51
32 83 -23 21 -46 22 -66 1z"/>
<path d="M12642 15678 c-28 -28 -2 -88 38 -88 40 0 66 60 38 88 -7 7 -24 12
-38 12 -14 0 -31 -5 -38 -12z"/>
<path d="M11897 15252 c-22 -24 -21 -45 2 -66 24 -22 59 -17 77 9 31 48 -41
100 -79 57z"/>
<path d="M11006 14994 c-19 -18 -20 -38 -6 -65 12 -22 59 -26 78 -7 28 28 2
88 -38 88 -10 0 -26 -7 -34 -16z"/>
<path d="M14498 13229 c-21 -12 -24 -59 -6 -77 7 -7 25 -12 40 -12 40 0 58 39
34 75 -17 26 -39 31 -68 14z"/>
<path d="M13755 12870 c-27 -29 -10 -74 28 -78 37 -4 57 13 57 49 0 47 -53 65
-85 29z"/>
<path d="M15352 13874 c-27 -18 -29 -55 -4 -77 24 -22 45 -21 65 1 23 26 21
58 -5 76 -12 9 -25 16 -28 16 -3 0 -16 -7 -28 -16z"/>
<path d="M15346 12545 c-34 -34 -6 -89 43 -83 31 4 52 49 35 76 -15 23 -58 27
-78 7z"/>
<path d="M8655 13569 c-4 -6 -5 -12 -2 -15 2 -3 7 2 10 11 7 17 1 20 -8 4z"/>
<path d="M14962 13628 c-7 -7 -12 -24 -12 -38 0 -14 5 -31 12 -38 28 -28 88
-2 88 38 0 40 -60 66 -88 38z"/>
<path d="M14967 12302 c-44 -48 6 -112 59 -77 31 20 31 59 2 79 -29 21 -41 20
-61 -2z"/>
<path d="M14512 12774 c-27 -18 -29 -55 -4 -77 24 -22 45 -21 65 1 23 26 21
58 -5 76 -12 9 -25 16 -28 16 -3 0 -16 -7 -28 -16z"/>
<path d="M13817 12422 c-34 -37 -15 -82 33 -82 32 0 50 17 50 46 0 48 -52 70
-83 36z"/>
<path d="M12294 9725 c-15 -23 -15 -27 0 -50 20 -30 62 -34 82 -7 19 24 17 46
-4 65 -27 24 -59 21 -78 -8z"/>
<path d="M11922 9488 c-7 -7 -12 -24 -12 -38 0 -14 5 -31 12 -38 28 -28 88 -2
88 38 0 40 -60 66 -88 38z"/>
<path d="M12046 6424 c-24 -23 -20 -61 8 -79 23 -16 54 -11 68 9 12 17 9 61
-4 74 -17 17 -54 15 -72 -4z"/>
<path d="M11672 6318 c-7 -7 -12 -24 -12 -38 0 -33 17 -50 50 -50 33 0 50 17
50 50 0 33 -17 50 -50 50 -14 0 -31 -5 -38 -12z"/>
<path d="M11302 6238 c-7 -7 -12 -24 -12 -38 0 -33 17 -50 50 -50 33 0 50 17
50 50 0 33 -17 50 -50 50 -14 0 -31 -5 -38 -12z"/>
<path d="M12652 6748 c-16 -16 -15 -49 1 -72 33 -46 114 12 83 59 -15 23 -66
31 -84 13z"/>
<path d="M12872 6488 c-16 -16 -15 -49 1 -72 33 -46 114 12 83 59 -15 23 -66
31 -84 13z"/>
<path d="M9712 5906 c7 -8 15 -12 17 -11 5 6 -10 25 -20 25 -5 0 -4 -6 3 -14z"/>
<path d="M12151 6036 c-18 -21 -9 -66 14 -82 46 -30 99 40 60 80 -20 20 -59
21 -74 2z"/>
<path d="M11753 5894 c-12 -19 -14 -30 -7 -42 40 -63 130 -19 94 47 -16 31
-65 28 -87 -5z"/>
<path d="M11366 5834 c-32 -31 -10 -94 33 -94 23 0 51 31 51 57 0 23 -29 53
-53 53 -8 0 -23 -7 -31 -16z"/>
<path d="M13297 4492 c-10 -10 -17 -28 -17 -39 0 -23 30 -53 53 -53 21 0 57
35 57 55 0 21 -36 55 -58 55 -11 0 -26 -8 -35 -18z"/>
<path d="M12931 3921 c-12 -12 -21 -27 -21 -34 0 -24 31 -57 55 -57 23 0 55
32 55 55 0 18 -23 43 -47 50 -15 4 -28 0 -42 -14z"/>
<path d="M12853 3240 c-54 -21 -45 -92 13 -98 37 -4 57 17 52 54 -4 34 -35 55
-65 44z"/>
<path d="M13026 2654 c-19 -18 -21 -55 -4 -72 21 -21 66 -14 84 13 15 23 15
27 0 50 -19 29 -56 33 -80 9z"/>
<path d="M12925 4660 c-22 -25 -13 -68 17 -79 54 -20 94 27 64 74 -20 30 -56
33 -81 5z"/>
<path d="M12542 4024 c-39 -27 -19 -94 28 -94 47 0 67 67 28 94 -12 9 -25 16
-28 16 -3 0 -16 -7 -28 -16z"/>
<path d="M12450 3337 c-48 -24 -28 -97 26 -97 48 0 65 66 25 97 -20 15 -21 15
-51 0z"/>
<path d="M12615 2660 c-43 -48 28 -108 76 -64 24 22 24 46 1 67 -25 23 -55 21
-77 -3z"/>
</g>
</svg>
